<svg width="1065" height="540" viewBox="0 0 1065 540" fill="none" xmlns="http://www.w3.org/2000/svg">
<g filter="url(#filter0_dd_143_51)">
<path d="M124.685 188.222C124.685 181.58 122.717 175.799 118.781 170.879C114.845 165.959 109.556 161.531 102.914 157.595C96.518 153.659 89.507 149.846 81.881 146.156C74.255 142.466 66.506 138.53 58.634 134.348C51.008 130.166 43.874 125.369 37.232 119.957C30.836 114.545 25.67 108.149 21.734 100.769C17.798 93.389 15.83 84.656 15.83 74.57C15.83 58.826 19.52 45.542 26.9 34.718C34.526 23.648 44.489 15.161 56.789 9.25699C69.335 3.353 83.111 0.400999 98.117 0.400999C107.465 0.400999 117.797 1.50799 129.113 3.72198C140.429 5.93598 150.515 9.25698 159.371 13.685L143.135 55.751C135.509 49.109 126.653 44.066 116.567 40.622C106.481 36.932 97.379 35.087 89.261 35.087C81.635 35.087 75.608 36.563 71.18 39.515C66.752 42.467 63.554 46.157 61.586 50.585C59.864 54.767 59.003 58.826 59.003 62.762C59.003 68.666 60.971 73.832 64.907 78.26C68.843 82.688 74.009 86.87 80.405 90.806C87.047 94.496 94.304 98.186 102.176 101.876C110.048 105.566 117.797 109.625 125.423 114.053C133.295 118.481 140.429 123.647 146.825 129.551C153.467 135.209 158.756 141.851 162.692 149.477C166.628 156.857 168.596 165.713 168.596 176.045C168.596 192.773 164.537 206.918 156.419 218.48C148.301 229.796 137.6 238.406 124.316 244.31C111.278 249.968 97.01 252.797 81.512 252.797C65.522 252.797 50.762 250.46 37.232 245.786C23.702 241.112 12.632 235.7 4.022 229.55L26.531 190.805C35.633 198.431 45.965 204.827 57.527 209.993C69.089 214.913 80.405 217.373 91.475 217.373C101.069 217.373 108.941 214.79 115.091 209.624C121.487 204.458 124.685 197.324 124.685 188.222ZM319.996 248L219.628 124.016L309.664 5.19798H365.383L257.266 131.027L260.956 109.994L386.416 248H319.996ZM179.776 248V5.19798H225.163V248H179.776ZM445.626 164.606L348.579 5.19798H405.774L476.622 136.562L445.626 164.606ZM436.401 248V137.3H484.002V248H436.401ZM475.884 162.392L450.792 136.562L522.747 5.19798H572.562L475.884 162.392ZM190.367 527V284.198H236.861V527H190.367ZM25.055 527V284.198H71.918V527H25.055ZM39.446 422.204V384.935H222.47V422.204H39.446ZM373.27 531.797C349.408 531.797 328.252 526.508 309.802 515.93C291.352 505.106 276.838 490.346 266.26 471.65C255.682 452.708 250.393 431.306 250.393 407.444C250.393 387.764 253.837 370.052 260.725 354.308C267.613 338.564 277.084 325.157 289.138 314.087C301.438 303.017 315.337 294.53 330.835 288.626C346.579 282.476 363.184 279.401 380.65 279.401C404.266 279.401 425.176 284.813 443.38 295.637C461.83 306.215 476.221 320.852 486.553 339.548C497.131 358.244 502.42 379.646 502.42 403.754C502.42 423.434 498.976 441.146 492.088 456.89C485.2 472.634 475.729 486.164 463.675 497.48C451.867 508.55 438.214 517.037 422.716 522.941C407.218 528.845 390.736 531.797 373.27 531.797ZM381.757 497.849C396.271 497.849 408.817 494.282 419.395 487.148C429.973 480.014 438.091 469.928 443.749 456.89C449.407 443.852 452.236 428.6 452.236 411.134C452.236 390.716 448.546 373.25 441.166 358.736C434.032 344.222 424.315 333.029 412.015 325.157C399.961 317.285 386.431 313.349 371.425 313.349C357.649 313.349 345.472 316.916 334.894 324.05C324.562 330.938 316.444 340.901 310.54 353.939C304.882 366.977 302.053 382.352 302.053 400.064C302.053 420.236 305.62 437.702 312.754 452.462C320.134 466.976 329.851 478.169 341.905 486.041C353.959 493.913 367.243 497.849 381.757 497.849ZM613.529 531.797C593.357 531.797 575.645 527.861 560.393 519.989C545.141 511.871 533.21 500.432 524.6 485.672C516.236 470.912 512.054 453.446 512.054 433.274V284.198H559.286V423.311C559.286 438.317 561.746 451.109 566.666 461.687C571.586 472.265 578.72 480.383 588.068 486.041C597.662 491.453 608.978 494.159 622.016 494.159C634.808 494.159 645.632 491.699 654.488 486.779C663.344 481.613 669.986 474.479 674.414 465.377C679.088 456.275 681.425 445.82 681.425 434.012V284.198H722.015V423.311C722.015 445.205 717.464 464.27 708.362 480.506C699.506 496.742 686.96 509.411 670.724 518.513C654.488 527.369 635.423 531.797 613.529 531.797ZM845.777 467.222C845.777 460.58 843.809 454.799 839.873 449.879C835.937 444.959 830.648 440.531 824.006 436.595C817.61 432.659 810.599 428.846 802.973 425.156C795.347 421.466 787.598 417.53 779.726 413.348C772.1 409.166 764.966 404.369 758.324 398.957C751.928 393.545 746.762 387.149 742.826 379.769C738.89 372.389 736.922 363.656 736.922 353.57C736.922 337.826 740.612 324.542 747.992 313.718C755.618 302.648 765.581 294.161 777.881 288.257C790.427 282.353 804.203 279.401 819.209 279.401C828.557 279.401 838.889 280.508 850.205 282.722C861.521 284.936 871.607 288.257 880.463 292.685L864.227 334.751C856.601 328.109 847.745 323.066 837.659 319.622C827.573 315.932 818.471 314.087 810.353 314.087C802.727 314.087 796.7 315.563 792.272 318.515C787.844 321.467 784.646 325.157 782.678 329.585C780.956 333.767 780.095 337.826 780.095 341.762C780.095 347.666 782.063 352.832 785.999 357.26C789.935 361.688 795.101 365.87 801.497 369.806C808.139 373.496 815.396 377.186 823.268 380.876C831.14 384.566 838.889 388.625 846.515 393.053C854.387 397.481 861.521 402.647 867.917 408.551C874.559 414.209 879.848 420.851 883.784 428.477C887.72 435.857 889.688 444.713 889.688 455.045C889.688 471.773 885.629 485.918 877.511 497.48C869.393 508.796 858.692 517.406 845.408 523.31C832.37 528.968 818.102 531.797 802.604 531.797C786.614 531.797 771.854 529.46 758.324 524.786C744.794 520.112 733.724 514.7 725.114 508.55L747.623 469.805C756.725 477.431 767.057 483.827 778.619 488.993C790.181 493.913 801.497 496.373 812.567 496.373C822.161 496.373 830.033 493.79 836.183 488.624C842.579 483.458 845.777 476.324 845.777 467.222ZM1060.64 527H900.868V284.198H1048.1V321.098H945.886V490.1H1060.64V527ZM915.259 421.835V386.042H1034.08V421.835H915.259Z" fill="white"/>
</g>
<defs>
<filter id="filter0_dd_143_51" x="0.0214844" y="0.400879" width="1064.62" height="539.396" filterUnits="userSpaceOnUse" color-interpolation-filters="sRGB">
<feFlood flood-opacity="0" result="BackgroundImageFix"/>
<feColorMatrix in="SourceAlpha" type="matrix" values="0 0 0 0 0 0 0 0 0 0 0 0 0 0 0 0 0 0 127 0" result="hardAlpha"/>
<feOffset dy="4"/>
<feGaussianBlur stdDeviation="2"/>
<feComposite in2="hardAlpha" operator="out"/>
<feColorMatrix type="matrix" values="0 0 0 0 0 0 0 0 0 0 0 0 0 0 0 0 0 0 0.25 0"/>
<feBlend mode="normal" in2="BackgroundImageFix" result="effect1_dropShadow_143_51"/>
<feColorMatrix in="SourceAlpha" type="matrix" values="0 0 0 0 0 0 0 0 0 0 0 0 0 0 0 0 0 0 127 0" result="hardAlpha"/>
<feOffset dy="4"/>
<feGaussianBlur stdDeviation="2"/>
<feComposite in2="hardAlpha" operator="out"/>
<feColorMatrix type="matrix" values="0 0 0 0 0 0 0 0 0 0 0 0 0 0 0 0 0 0 0.25 0"/>
<feBlend mode="normal" in2="effect1_dropShadow_143_51" result="effect2_dropShadow_143_51"/>
<feBlend mode="normal" in="SourceGraphic" in2="effect2_dropShadow_143_51" result="shape"/>
</filter>
</defs>
</svg>
